<?xml version="1.0" encoding="UTF-8"?>
<svg id="instagram" xmlns="http://www.w3.org/2000/svg" version="1.1" viewBox="0 0 2500 2500">
  <!-- Generator: Adobe Illustrator 29.5.1, SVG Export Plug-In . SVG Version: 2.1.0 Build 141)  -->
  <path d="M833.401,1250c0-230.109,186.49-416.7,416.599-416.7s416.7,186.591,416.7,416.7-186.591,416.7-416.7,416.7-416.599-186.591-416.599-416.7M608.138,1250c0,354.503,287.359,641.862,641.862,641.862s641.862-287.359,641.862-641.862-287.359-641.862-641.862-641.862-641.862,287.359-641.862,641.862M1767.266,582.694c0,82.795,67.145,150.04,150.04,150.04s150.04-67.246,150.04-150.04-67.145-149.939-150.04-149.939-150.04,67.145-150.04,149.939M744.952,2267.468c-121.87-5.553-188.106-25.848-232.128-43.013-58.36-22.718-99.96-49.778-143.78-93.498-43.72-43.72-70.88-85.319-93.498-143.679-17.165-44.023-37.46-110.258-43.013-232.128-6.058-131.765-7.27-171.345-7.27-505.149s1.313-373.284,7.27-505.149c5.553-121.87,25.949-188.005,43.013-232.128,22.718-58.36,49.778-99.96,93.498-143.78,43.72-43.72,85.319-70.88,143.78-93.498,44.023-17.165,110.258-37.46,232.128-43.013,131.765-6.058,171.345-7.27,505.048-7.27s373.283,1.313,505.149,7.27c121.87,5.553,188.005,25.949,232.128,43.013,58.36,22.617,99.96,49.778,143.78,93.498,43.72,43.72,70.78,85.42,93.498,143.78,17.165,44.023,37.46,110.258,43.013,232.128,6.058,131.866,7.27,171.345,7.27,505.149s-1.212,373.283-7.27,505.149c-5.553,121.87-25.949,188.106-43.013,232.128-22.718,58.36-49.778,99.959-93.498,143.679s-85.42,70.78-143.78,93.498c-44.023,17.165-110.258,37.46-232.128,43.013-131.765,6.058-171.345,7.27-505.149,7.27s-373.284-1.212-505.048-7.27M734.653,7.573c-133.078,6.058-223.95,27.161-303.413,58.057-82.189,31.906-151.858,74.717-221.426,144.184-69.467,69.467-112.278,139.136-144.184,221.426-30.897,79.463-51.999,170.335-58.057,303.413C1.414,867.932,0,910.541,0,1250s1.414,382.068,7.573,515.347c6.058,133.078,27.161,223.95,58.057,303.413,31.906,82.189,74.616,151.959,144.184,221.426,69.467,69.467,139.136,112.177,221.426,144.184,79.564,30.897,170.335,51.999,303.413,58.057,133.38,6.058,175.889,7.573,515.347,7.573s382.068-1.413,515.347-7.573c133.078-6.058,223.95-27.161,303.413-58.057,82.189-32.007,151.858-74.717,221.426-144.184,69.467-69.467,112.177-139.237,144.184-221.426,30.897-79.463,52.1-170.335,58.057-303.413,6.058-133.38,7.472-175.888,7.472-515.347s-1.413-382.068-7.472-515.347c-6.058-133.078-27.161-223.95-58.057-303.413-32.007-82.189-74.717-151.858-144.184-221.426-69.467-69.467-139.237-112.278-221.325-144.184-79.564-30.897-170.436-52.1-303.413-58.057C1632.169,1.515,1589.56,0,1250.101,0s-382.068,1.414-515.448,7.573"/>
</svg>